<svg width="459" height="272" viewBox="0 0 459 272" fill="none" xmlns="http://www.w3.org/2000/svg">
<path d="M178.447 26.2871L178.72 26.7849C179.031 27.363 179.506 27.8371 180.084 28.1487L180.588 28.4215L180.084 28.6942C179.507 29.0081 179.034 29.4816 178.72 30.058L178.447 30.5558L178.167 30.058C177.857 29.4793 177.382 29.0049 176.804 28.6942L176.299 28.4215L176.804 28.1487C177.384 27.8401 177.859 27.3652 178.167 26.7849L178.447 26.2871Z" fill="#EBEBEB"/>
<path d="M240.779 49.1102L241.304 50.0512C241.891 51.1158 242.772 51.9892 243.841 52.5674L244.796 53.0857L243.841 53.6039C242.772 54.1822 241.891 55.0556 241.304 56.1201L240.779 57.0612L240.254 56.1201C239.669 55.0542 238.788 54.1803 237.718 53.6039L236.763 53.0857L237.718 52.5674C238.788 51.9911 239.669 51.1172 240.254 50.0512L240.779 49.1102Z" fill="#EBEBEB"/>
<path d="M156.657 86.8379L157.182 87.7789C157.769 88.8434 158.649 89.7168 159.718 90.2951L160.673 90.8133L159.718 91.3316C158.649 91.9098 157.769 92.7832 157.182 93.8478L156.657 94.7888L156.132 93.8478C155.547 92.7818 154.666 91.908 153.595 91.3316L152.64 90.8133L153.595 90.2951C154.666 89.7187 155.547 88.8448 156.132 87.7789L156.657 86.8379Z" fill="#16C7DF"/>
<path d="M109.193 57.7121L109.718 58.6531C110.305 59.7177 111.185 60.5911 112.254 61.1693L113.209 61.6876L112.254 62.2058C111.185 62.7841 110.305 63.6575 109.718 64.722L109.193 65.6631L108.668 64.722C108.083 63.6561 107.202 62.7822 106.131 62.2058L105.176 61.6876L106.131 61.1693C107.202 60.5929 108.083 59.7191 108.668 58.6531L109.193 57.7121Z" fill="#EBEBEB"/>
<path d="M444.08 135.711L444.605 136.659C445.196 137.721 446.076 138.593 447.142 139.175L448.096 139.687L447.142 140.205C446.073 140.783 445.192 141.657 444.605 142.721L444.08 143.669L443.562 142.721C442.975 141.657 442.094 140.783 441.025 140.205L440.064 139.687L441.025 139.175C442.091 138.593 442.971 137.721 443.562 136.659L444.08 135.711Z" fill="#EBEBEB"/>
<path d="M224.912 8.37369L225.143 8.79646C225.409 9.27377 225.807 9.6644 226.289 9.92159L226.719 10.1534L226.289 10.3921C225.807 10.6493 225.409 11.0399 225.143 11.5172L224.912 11.94L224.68 11.5172C224.414 11.0399 224.016 10.6493 223.534 10.3921L223.111 10.1534L223.534 9.92159C224.016 9.6644 224.414 9.27377 224.68 8.79646L224.912 8.37369Z" fill="#EBEBEB"/>
<path d="M402.355 115.104H435.734C435.734 115.104 432.781 109.731 424.189 110.515C416.007 111.258 415.563 107.869 411.39 107.453C407.217 107.037 403.746 110.263 402.355 115.104Z" fill="#EBEBEB"/>
<path d="M361.025 35.8951H426.262C426.262 35.8951 420.493 25.4007 403.698 26.9281C387.66 28.3874 386.849 21.7662 378.693 20.9479C370.538 20.1296 363.746 26.3826 361.025 35.8951Z" fill="#EBEBEB"/>
<path d="M176.326 57.7226H213.749C213.749 57.7226 210.435 51.7014 200.793 52.5811C191.594 53.4198 191.123 49.6148 186.473 49.1716C181.822 48.7284 177.888 52.2674 176.326 57.7226Z" fill="#EBEBEB"/>
<path d="M436.068 82.0391C436.068 82.1004 435.202 82.3323 433.892 82.9801C432.2 83.8316 430.695 85.0141 429.467 86.4578L429.331 86.6146L429.167 86.8123L429.031 86.601C428.017 85.0427 426.604 83.7852 424.939 82.9596C423.678 82.3255 422.798 82.1618 422.818 82.1004C423.029 82.0865 423.24 82.1143 423.439 82.1823C423.995 82.3089 424.536 82.4917 425.055 82.7278C426.797 83.5161 428.274 84.7899 429.31 86.3964H429.01L429.146 86.2327C430.4 84.7423 431.973 83.5536 433.749 82.7551C434.282 82.5143 434.834 82.3181 435.399 82.1686C435.614 82.0905 435.84 82.0468 436.068 82.0391Z" fill="#263238"/>
<path d="M178.188 75.977C178.188 76.0247 177.506 76.202 176.517 76.6998C175.211 77.3473 174.051 78.2546 173.108 79.366L173.005 79.482L172.876 79.632L172.774 79.4683C172.006 78.2807 170.935 77.3201 169.671 76.6862C168.703 76.1952 168.028 76.0725 168.041 76.0043C168.203 75.9927 168.365 76.0135 168.519 76.0657C168.943 76.1605 169.357 76.2999 169.753 76.4816C171.088 77.0862 172.22 78.0643 173.012 79.2978H172.78L172.89 79.1751C173.849 78.0327 175.054 77.1214 176.415 76.5089C176.824 76.3284 177.246 76.178 177.676 76.0588C177.841 76.004 178.014 75.9764 178.188 75.977Z" fill="#263238"/>
<path d="M208.682 92.8812C208.682 92.9426 207.816 93.1676 206.507 93.8222C204.808 94.6669 203.299 95.8504 202.075 97.2999L201.945 97.4568L201.781 97.6477L201.645 97.4363C200.63 95.8812 199.218 94.6263 197.554 93.8018C196.292 93.1676 195.413 93.004 195.433 92.9358C195.641 92.9306 195.848 92.9582 196.047 93.0176C196.605 93.1441 197.148 93.3268 197.67 93.5631C199.411 94.3543 200.889 95.6303 201.925 97.2386H201.618L201.761 97.0817C203.014 95.5913 204.588 94.4026 206.364 93.604C206.897 93.3616 207.449 93.1632 208.014 93.0108C208.226 92.9248 208.453 92.8808 208.682 92.8812Z" fill="#263238"/>
<path d="M340.084 0C340.084 0.0613708 339.218 0.293217 337.916 0.941019C336.218 1.78807 334.71 2.97123 333.483 4.41869L333.347 4.57553L333.183 4.77328L333.047 4.55507C332.044 3.00507 330.645 1.75049 328.996 0.92056C327.728 0.286396 326.848 0.12274 326.869 0.0545504C327.079 0.0491706 327.288 0.0767848 327.489 0.13638C328.045 0.264978 328.587 0.450049 329.105 0.688715C330.848 1.47475 332.326 2.749 333.36 4.35732H333.06L333.197 4.19367C334.45 2.70325 336.023 1.51457 337.8 0.715992C338.333 0.477311 338.885 0.281222 339.45 0.12956C339.652 0.0505957 339.867 0.00678029 340.084 0Z" fill="#263238"/>
<path d="M421.666 59.6183L421.803 59.8638C421.959 60.1527 422.196 60.3897 422.485 60.5457L422.73 60.682L422.485 60.8184C422.193 60.9714 421.956 61.2092 421.803 61.5003L421.666 61.7458L421.53 61.5003C421.374 61.2114 421.137 60.9744 420.848 60.8184L420.603 60.682L420.848 60.5457C421.135 60.3869 421.371 60.1506 421.53 59.8638L421.666 59.6183Z" fill="#455A64"/>
<path d="M175.631 129.015L175.767 129.26C175.923 129.549 176.16 129.786 176.449 129.942L176.694 130.079L176.449 130.215C176.162 130.374 175.926 130.61 175.767 130.897L175.631 131.142L175.494 130.897C175.338 130.608 175.101 130.371 174.812 130.215L174.56 130.079L174.812 129.942C175.104 129.789 175.341 129.552 175.494 129.26L175.631 129.015Z" fill="#455A64"/>
<path d="M364.1 92.663L364.571 93.5222C365.099 94.4901 365.894 95.2855 366.862 95.8134L367.721 96.2839L366.862 96.7544C365.894 97.2823 365.099 98.0777 364.571 99.0456L364.1 99.9048L363.63 99.0456C363.1 98.0793 362.305 97.2845 361.339 96.7544L360.479 96.2839L361.339 95.8134C362.305 95.2833 363.1 94.4885 363.63 93.5222L364.1 92.663Z" fill="#455A64"/>
<path d="M256.436 8.40097L256.906 9.26698C257.434 10.2328 258.23 11.0259 259.197 11.5513L260.056 12.0287L259.197 12.4992C258.23 13.0246 257.434 13.8177 256.906 14.7835L256.436 15.6495L255.965 14.7835C255.433 13.8205 254.638 13.0283 253.674 12.4992L252.808 12.0287L253.674 11.5513C254.638 11.0222 255.433 10.23 255.965 9.26698L256.436 8.40097Z" fill="#3D80E3"/>
<path d="M311.983 229.118C311.983 229.118 311.887 229.193 311.683 229.322L310.783 229.895C309.584 230.553 308.314 231.072 306.998 231.443C304.903 231.997 302.741 232.249 300.575 232.193C297.71 232.126 294.861 231.746 292.078 231.061C288.982 230.379 285.668 229.274 282.075 228.299C278.481 227.324 274.574 226.424 270.38 226.526C268.247 226.584 266.129 226.914 264.08 227.508C261.936 228.138 259.83 228.889 257.772 229.759C255.658 230.611 253.51 231.518 251.267 232.268C248.996 233.07 246.63 233.574 244.229 233.768C241.823 233.884 239.411 233.685 237.056 233.175C234.737 232.704 232.494 232.057 230.305 231.416C225.934 230.134 221.659 228.927 217.472 228.94C213.511 229.021 209.578 229.629 205.777 230.747C202.177 231.722 198.876 232.793 195.815 233.673C193.074 234.489 190.278 235.104 187.448 235.514C185.303 235.805 183.131 235.846 180.977 235.636C179.619 235.488 178.279 235.212 176.974 234.811L175.972 234.436C175.747 234.354 175.631 234.3 175.631 234.3C175.631 234.3 175.753 234.3 175.978 234.402L176.994 234.73C178.301 235.1 179.639 235.353 180.99 235.486C183.134 235.665 185.291 235.603 187.421 235.302C190.237 234.871 193.02 234.24 195.747 233.413C198.795 232.541 202.095 231.436 205.695 230.447C209.528 229.31 213.495 228.69 217.492 228.606C221.741 228.606 226.057 229.806 230.448 231.081C234.84 232.357 239.429 233.7 244.257 233.413C246.624 233.215 248.957 232.715 251.198 231.927C253.428 231.184 255.569 230.284 257.683 229.431C259.756 228.562 261.875 227.811 264.032 227.181C266.111 226.581 268.258 226.249 270.421 226.192C274.663 226.104 278.604 227.038 282.198 228.013C285.791 228.988 289.105 230.093 292.187 230.815C294.951 231.511 297.781 231.907 300.629 231.995C302.778 232.067 304.927 231.837 307.012 231.313C308.324 230.96 309.593 230.464 310.796 229.834L311.71 229.295L311.983 229.118Z" fill="white" fill-opacity="0.82"/>
<path d="M394.288 264.283L393.981 264.494L393.047 265.088C391.803 265.771 390.485 266.311 389.119 266.697C386.945 267.274 384.699 267.538 382.45 267.481C379.482 267.408 376.53 267.015 373.647 266.308C370.428 265.565 366.991 264.453 363.255 263.444C359.518 262.435 355.461 261.494 351.117 261.603C348.901 261.668 346.701 262.012 344.571 262.626C342.348 263.286 340.162 264.067 338.024 264.965C335.829 265.851 333.606 266.792 331.274 267.577C328.916 268.405 326.461 268.93 323.971 269.138C321.472 269.258 318.969 269.052 316.524 268.524C314.11 268.033 311.785 267.358 309.507 266.704C304.973 265.34 300.534 264.119 296.183 264.133C292.072 264.217 287.99 264.85 284.045 266.015C280.309 267.024 276.879 268.156 273.708 269.056C270.86 269.903 267.954 270.541 265.014 270.966C262.787 271.267 260.534 271.313 258.297 271.102C256.887 270.942 255.495 270.654 254.137 270.243L253.101 269.868L252.753 269.725L253.115 269.834L254.165 270.168C255.522 270.549 256.909 270.813 258.311 270.959C260.536 271.146 262.776 271.08 264.986 270.761C267.912 270.316 270.802 269.66 273.633 268.797C276.797 267.89 280.22 266.751 283.964 265.715C287.925 264.523 292.027 263.865 296.163 263.758C300.575 263.758 305.027 264.999 309.589 266.322C314.151 267.645 318.911 269.049 323.909 268.736C326.37 268.532 328.795 268.015 331.124 267.195C333.435 266.424 335.658 265.49 337.854 264.597C340.004 263.694 342.203 262.913 344.441 262.258C346.6 261.637 348.83 261.293 351.076 261.235C355.474 261.133 359.572 262.108 363.302 263.117C367.032 264.126 370.476 265.272 373.674 266.029C376.543 266.744 379.481 267.151 382.436 267.242C384.667 267.326 386.898 267.097 389.064 266.56C390.427 266.189 391.746 265.672 392.999 265.019L393.947 264.46C394.172 264.338 394.288 264.283 394.288 264.283Z" fill="white" fill-opacity="0.58"/>
<path d="M419.041 239.169L418.864 239.107L418.352 238.889C417.697 238.624 417.028 238.396 416.347 238.207C413.814 237.591 411.195 237.411 408.601 237.675C405.307 237.9 401.482 238.848 397.166 239.578C394.9 239.98 392.599 240.153 390.299 240.096C387.832 239.952 385.394 239.493 383.043 238.732C380.616 238.05 378.27 237.212 375.979 236.687C373.778 236.123 371.492 235.968 369.235 236.23C367.207 236.562 365.232 237.165 363.364 238.023C361.591 238.801 359.954 239.619 358.468 240.301C356.127 241.509 353.585 242.276 350.967 242.565C350.255 242.614 349.54 242.589 348.833 242.49L348.28 242.408C348.217 242.403 348.155 242.389 348.096 242.367H348.287L348.839 242.408C349.543 242.471 350.25 242.471 350.953 242.408C353.535 242.063 356.035 241.264 358.338 240.048C359.838 239.366 361.448 238.521 363.227 237.73C365.117 236.841 367.12 236.217 369.18 235.875C371.477 235.598 373.805 235.748 376.047 236.318C378.379 236.843 380.718 237.682 383.132 238.364C385.457 239.116 387.867 239.574 390.306 239.728C392.59 239.789 394.874 239.622 397.125 239.23C401.421 238.548 405.273 237.6 408.601 237.409C411.217 237.162 413.856 237.381 416.395 238.057C417.318 238.322 418.206 238.695 419.041 239.169Z" fill="#16C7DF"/>
<path d="M459 179.203C459 179.305 389.815 179.38 304.482 179.38C219.149 179.38 149.944 179.318 149.944 179.203C149.944 179.087 219.115 179.025 304.482 179.025C389.849 179.025 459 179.121 459 179.203Z" fill="white"/>
<path d="M295.508 33.6448L21.5747 225.994H179.069L295.508 51.831V33.6448Z" fill="#FFD400"/>
<path opacity="0.9" d="M295.508 33.6448L0 227.882H168.282L295.508 51.831V33.6448Z" fill="white"/>
<path d="M260.541 204.221C273.851 204.849 287.428 205.517 299.818 209.254C304.646 210.706 309.467 212.663 314.656 212.527C322.45 212.329 329.167 207.488 336.961 207.658C343.875 207.808 349.692 211.865 356.552 212.527C364.646 213.304 372.113 209.267 380.159 208.224C391.513 206.751 403.664 211.954 414.452 208.633C418.748 207.31 414.036 205.094 410.19 204.999C410.19 204.999 395.952 204.808 392.106 202.019C388.26 199.23 385.287 198.903 383.05 198.248C380.814 197.593 377.193 199.039 377.193 199.039L332.869 199.612L299.566 196.932L269.862 198.623L260.541 204.221Z" fill="#EBEBEB"/>
<path d="M290.694 71.8652L287.284 181.794L329.753 181.282L326.03 71.8652H290.694Z" fill="#FFD400"/>
<path d="M328.935 67.0714H287.284V71.8651H328.935V67.0714Z" fill="#313131"/>
<path d="M295.508 67.0714V33.3311L306.862 28.3874H309.596L321.154 33.6448V67.0714H295.508Z" fill="#FFD400"/>
<path d="M321.161 33.6448H295.508V51.831H321.161V33.6448Z" fill="#EBEBEB"/>
<path d="M306.862 28.3874V24.712H309.385V28.3874H307.285" fill="#FFD400"/>
<path opacity="0.4" d="M326.971 99.407H289.842L289.057 124.426H327.816L326.971 99.407Z" fill="white"/>
<path d="M324.38 67.0714C324.358 66.9384 324.347 66.8039 324.346 66.6691C324.346 66.3691 324.346 65.9872 324.312 65.503C324.312 64.4461 324.312 62.9868 324.257 61.1798L324.38 61.3094C320.391 61.3094 314.588 61.3639 308.137 61.3639C301.686 61.3639 295.863 61.3639 291.887 61.3094L292.017 61.1798C292.017 62.9868 291.976 64.4461 291.962 65.503C291.962 65.9804 291.962 66.3691 291.928 66.6691C291.932 66.8044 291.919 66.9397 291.887 67.0714C291.877 66.9375 291.877 66.803 291.887 66.6691C291.887 66.3691 291.887 65.9872 291.853 65.503C291.853 64.4461 291.819 62.9868 291.799 61.1798V61.0571H291.922C295.917 61.0162 301.72 60.9957 308.171 60.9957C314.622 60.9957 320.445 60.9957 324.414 61.0571H324.544V61.1798C324.544 62.9868 324.503 64.4461 324.489 65.503C324.489 65.9804 324.489 66.3691 324.455 66.6691C324.448 66.8059 324.423 66.9412 324.38 67.0714Z" fill="#263238"/>
<path d="M315.126 67.0714C314.943 66.1009 314.881 65.1114 314.942 64.1256C314.882 63.1398 314.943 62.1503 315.126 61.1798C315.309 62.1503 315.371 63.1398 315.311 64.1256C315.372 65.1114 315.31 66.1009 315.126 67.0714Z" fill="#263238"/>
<path d="M303.125 67.0714C302.941 66.1009 302.88 65.1114 302.941 64.1256C302.88 63.1398 302.942 62.1503 303.125 61.1798C303.312 62.1498 303.377 63.1396 303.316 64.1256C303.377 65.1117 303.313 66.1015 303.125 67.0714Z" fill="#263238"/>
<path d="M302.9 51.831C302.798 51.831 302.716 47.7396 302.716 42.7345C302.716 37.7294 302.798 33.6448 302.9 33.6448C303.002 33.6448 303.091 37.7362 303.091 42.7345C303.091 47.7328 303.002 51.831 302.9 51.831Z" fill="#263238"/>
<path d="M312.958 51.831C312.856 51.831 312.774 47.7396 312.774 42.7345C312.774 37.7294 312.856 33.6448 312.958 33.6448C313.06 33.6448 313.149 37.7362 313.149 42.7345C313.149 47.7328 313.081 51.831 312.958 51.831Z" fill="#263238"/>
<path d="M321.141 42.7822C320.81 42.8436 320.474 42.871 320.138 42.8641L317.411 42.9459C315.086 42.9936 311.881 43.0414 308.342 43.055C304.803 43.0686 301.591 43.055 299.266 43.0073C298.011 43.0468 296.756 42.9715 295.515 42.7822L308.335 42.68H317.404H320.132C320.471 42.6804 320.809 42.7147 321.141 42.7822Z" fill="#263238"/>
<path opacity="0.4" d="M288.246 150.611H328.71L329.562 175.739L287.469 175.568L288.246 150.611Z" fill="white"/>
<path d="M290.223 90.2764C290.962 90.1781 291.708 90.1371 292.453 90.1537C293.817 90.1537 295.801 90.0991 298.011 90.0923L297.827 90.2764V87.1465L298.011 87.3238C295.801 87.3238 293.851 87.3238 292.453 87.2624C291.708 87.2743 290.963 87.2355 290.223 87.1465C290.962 87.0482 291.708 87.0072 292.453 87.0238C293.817 87.0238 295.801 86.9692 298.011 86.9624H298.195V90.4674H298.011C295.801 90.4674 293.851 90.4674 292.453 90.406C291.708 90.4203 290.962 90.377 290.223 90.2764Z" fill="#263238"/>
<path d="M311.144 56.4611C311.1 56.1976 311.079 55.9305 311.083 55.6633C311.083 55.1246 311.028 54.2995 311.015 53.3312V53.2016H311.151C313.122 53.1676 315.883 53.1471 318.938 53.1471L319.129 53.338V54.1427C319.129 54.4086 319.129 54.6745 319.129 54.9405C319.129 55.4655 319.129 55.9702 319.129 56.4611V56.6384H318.952C316.654 56.6384 314.683 56.5907 313.306 56.5566L311.703 56.5089C311.523 56.5116 311.342 56.4956 311.165 56.4611C311.37 56.4315 311.578 56.4155 311.785 56.4134L313.422 56.3657C314.786 56.3316 316.736 56.2906 318.952 56.2838L318.775 56.4611C318.775 55.9702 318.775 55.4655 318.775 54.9405V53.3244C318.734 53.2835 319.129 53.6722 318.959 53.5085C315.904 53.5085 313.142 53.5085 311.171 53.4539L311.301 53.3244C311.301 54.2586 311.253 55.0291 311.233 55.5746C311.212 56.1202 311.158 56.4611 311.144 56.4611Z" fill="#263238"/>
<path d="M306.569 59.6388C306.529 59.3747 306.511 59.1079 306.514 58.8409C306.514 58.3091 306.459 57.4771 306.439 56.5089V56.3793H306.569C308.546 56.3793 311.308 56.3247 314.363 56.3247L314.547 56.5089V58.1045C314.547 58.6296 314.547 59.141 314.547 59.6251V59.8092H314.369C312.071 59.8092 310.094 59.7547 308.716 59.7206L307.121 59.6729C306.938 59.6843 306.754 59.6682 306.575 59.6251C306.783 59.5967 306.993 59.583 307.203 59.5842L308.839 59.5365C310.203 59.5024 312.146 59.4615 314.369 59.4478L314.192 59.6251C314.192 59.141 314.192 58.6296 314.192 58.1045V56.5089L314.376 56.693C311.321 56.693 308.56 56.693 306.582 56.6384L306.719 56.5089C306.719 57.4499 306.671 58.2204 306.644 58.7659C306.642 59.0584 306.617 59.3503 306.569 59.6388Z" fill="#263238"/>
<path d="M288.41 143.526C289.151 143.428 289.899 143.387 290.646 143.403C292.044 143.369 293.988 143.348 296.204 143.342L296.02 143.526C296.02 143.021 296.02 142.496 296.02 141.957C296.02 141.419 296.02 140.894 296.02 140.389L296.204 140.573C293.988 140.573 292.044 140.573 290.646 140.512C289.899 140.528 289.151 140.487 288.41 140.389C289.151 140.296 289.899 140.257 290.646 140.273C292.044 140.273 293.988 140.212 296.204 140.205H296.388V143.744H296.204C293.988 143.744 292.044 143.71 290.646 143.683C289.898 143.688 289.15 143.635 288.41 143.526Z" fill="#263238"/>
<path d="M303.125 93.7132C303.09 93.3984 303.072 93.082 303.07 92.7653C303.07 92.1653 303.016 91.3197 303.002 90.2764L303.125 90.406C300.8 90.4401 297.411 90.4605 293.647 90.4605L293.831 90.2764V92.0289C293.831 92.6017 293.831 93.1608 293.831 93.6995L293.653 93.5222C296.381 93.5222 298.693 93.57 300.384 93.6041L302.382 93.6586C302.632 93.6566 302.883 93.6702 303.132 93.6995C302.907 93.7394 302.678 93.7554 302.45 93.7473L300.493 93.795C298.815 93.795 296.401 93.87 293.674 93.8836H293.497V90.2764C293.462 90.3173 293.851 89.9218 293.687 90.0923C297.452 90.0923 300.841 90.0923 303.166 90.1537H303.295V90.2764C303.295 91.3811 303.248 92.2539 303.227 92.8403C303.218 93.1336 303.183 93.4256 303.125 93.7132Z" fill="#263238"/>
<path d="M312.862 133.727C312.828 133.41 312.81 133.091 312.808 132.772C312.808 132.179 312.753 131.333 312.74 130.29L312.862 130.413C310.53 130.454 307.141 130.474 303.384 130.474L303.568 130.29V132.036C303.568 132.615 303.568 133.175 303.568 133.713L303.384 133.536C306.112 133.536 308.43 133.584 310.121 133.618L312.119 133.666C312.37 133.667 312.62 133.683 312.869 133.713C312.644 133.748 312.416 133.764 312.187 133.761L310.23 133.809C308.553 133.843 306.139 133.884 303.37 133.891H303.193V133.713C303.193 133.175 303.193 132.615 303.193 132.036V130.29L303.411 130.106C307.169 130.106 310.558 130.106 312.89 130.167H313.019V130.29C313.019 131.388 312.972 132.261 312.944 132.847C312.943 133.142 312.915 133.437 312.862 133.727Z" fill="#263238"/>
<path d="M300.5 146.963C300.465 146.645 300.447 146.327 300.445 146.008C300.445 145.415 300.39 144.569 300.377 143.526L300.5 143.648C298.174 143.689 294.785 143.71 291.021 143.71L291.205 143.526V145.271C291.205 145.851 291.205 146.41 291.205 146.949L291.028 146.772C293.756 146.772 296.067 146.819 297.758 146.853L299.756 146.901C300.007 146.903 300.257 146.919 300.506 146.949C300.281 146.984 300.053 147 299.824 146.997L297.867 147.044C296.19 147.078 293.776 147.119 291.048 147.126H290.871V143.539C290.83 143.58 291.226 143.185 291.062 143.355C294.826 143.355 298.215 143.355 300.54 143.41H300.67V143.533C300.67 144.63 300.622 145.51 300.602 146.09C300.592 146.383 300.557 146.675 300.5 146.963Z" fill="#263238"/>
<path d="M323.384 164.726C323.344 164.409 323.324 164.09 323.323 163.771C323.323 163.178 323.275 162.332 323.255 161.289L323.384 161.412C321.052 161.453 317.663 161.473 313.899 161.473L314.083 161.289V163.042C314.083 163.614 314.083 164.174 314.083 164.712L313.906 164.535C316.633 164.535 318.952 164.583 320.643 164.617L322.634 164.665C322.887 164.666 323.14 164.682 323.391 164.712C323.165 164.746 322.937 164.762 322.709 164.76L320.759 164.808C319.075 164.808 316.667 164.883 313.899 164.89H313.722V164.712C313.722 164.174 313.722 163.614 313.722 163.042V161.289L313.906 161.105C317.67 161.105 321.059 161.105 323.391 161.16H323.514V161.282C323.514 162.38 323.466 163.26 323.446 163.846C323.447 164.141 323.426 164.435 323.384 164.726Z" fill="#263238"/>
<path d="M329.358 168.292C329.323 167.977 329.304 167.661 329.303 167.344C329.303 166.744 329.248 165.899 329.235 164.855L329.358 164.985C327.026 165.019 323.636 165.046 319.879 165.046C319.709 165.21 320.104 164.815 320.063 164.855V166.608C320.063 167.181 320.063 167.74 320.063 168.279L319.886 168.101C322.614 168.101 324.925 168.149 326.616 168.183L328.642 168.292C328.892 168.29 329.143 168.304 329.392 168.333C329.167 168.377 328.938 168.393 328.71 168.381L326.753 168.429C325.075 168.47 322.661 168.504 319.9 168.517H319.716V168.292C319.716 167.754 319.716 167.194 319.716 166.622V164.883L319.907 164.699C323.664 164.699 327.053 164.699 329.385 164.76H329.514V164.883C329.514 165.987 329.467 166.86 329.446 167.447C329.44 167.731 329.41 168.013 329.358 168.292Z" fill="#263238"/>
<path d="M322.211 110.12C322.171 109.805 322.151 109.489 322.15 109.172C322.15 108.572 322.095 107.726 322.082 106.683L322.204 106.812C319.879 106.812 316.49 106.874 312.726 106.874L312.91 106.683V108.435C312.91 109.008 312.91 109.567 312.91 110.106L312.733 109.929C315.46 109.929 317.779 109.976 319.463 110.01L321.461 110.065C321.714 110.064 321.967 110.077 322.218 110.106C321.993 110.149 321.764 110.165 321.536 110.154L319.586 110.201C317.902 110.242 315.494 110.276 312.726 110.29H312.549V110.106C312.549 109.567 312.549 109.008 312.549 108.435V106.683C312.508 106.724 312.896 106.328 312.733 106.499C316.497 106.499 319.886 106.499 322.211 106.56H322.341V106.683C322.341 107.787 322.293 108.66 322.273 109.247C322.273 109.539 322.253 109.831 322.211 110.12Z" fill="#263238"/>
<path opacity="0.4" d="M290.694 71.8652L315.126 77.3749L316.947 181.282H329.753L326.03 71.8652H290.694Z" fill="black"/>
<path d="M273.408 195.759C273.408 195.868 265.225 195.95 255.167 195.95C245.109 195.95 236.919 195.868 236.919 195.759C236.919 195.65 245.102 195.575 255.167 195.575C265.232 195.575 273.408 195.657 273.408 195.759Z" fill="#263238"/>
<path d="M348.874 181.201C348.493 181.319 348.103 181.404 347.707 181.453L344.509 181.998C341.782 182.435 338.065 183.021 333.933 183.649L332.324 183.887L332.433 183.833L328.055 188.504L328.021 188.545H327.96L322.846 189.274L321.42 189.452C321.251 189.476 321.079 189.476 320.909 189.452C321.068 189.394 321.232 189.353 321.4 189.329L322.818 189.063L327.912 188.21L327.823 188.258L332.153 183.546L332.194 183.499H332.263L333.872 183.253C338.004 182.626 341.748 182.08 344.462 181.705L347.68 181.282C348.075 181.225 348.474 181.198 348.874 181.201Z" fill="#263238"/>
<path d="M251.383 187.263C252.368 186.797 253.478 186.661 254.547 186.874C255.129 186.919 255.679 187.159 256.108 187.556C256.31 187.766 256.423 188.045 256.423 188.337C256.423 188.628 256.31 188.908 256.108 189.117C255.82 189.312 255.472 189.399 255.126 189.363C254.287 189.363 253.36 189.206 252.692 189.711C252.31 189.997 252.058 190.474 251.601 190.618C251.373 190.67 251.134 190.647 250.92 190.552C250.707 190.457 250.529 190.296 250.414 190.092C250.196 189.672 250.147 189.184 250.278 188.729C250.338 188.416 250.469 188.122 250.66 187.868C250.852 187.614 251.099 187.407 251.383 187.263Z" fill="#FFD400"/>
<path d="M249.173 183.001C249.311 183.164 249.483 183.296 249.676 183.389C249.869 183.481 250.079 183.532 250.293 183.537C250.507 183.542 250.719 183.502 250.917 183.419C251.114 183.336 251.291 183.212 251.437 183.055C251.922 182.492 252.253 181.813 252.399 181.085C252.862 179.469 253.333 177.764 252.985 176.114C252.906 175.609 252.686 175.136 252.351 174.75C252.183 174.562 251.969 174.421 251.729 174.341C251.49 174.261 251.234 174.244 250.987 174.293C250.71 174.407 250.461 174.577 250.254 174.793C250.047 175.009 249.888 175.266 249.787 175.548C249.028 177.137 248.63 178.874 248.621 180.635C248.564 181.457 248.756 182.276 249.173 182.987" fill="#FFD400"/>
<path d="M247.557 184.208C247.861 183.813 248.063 183.35 248.146 182.859C248.229 182.368 248.191 181.864 248.034 181.392C247.71 180.45 247.135 179.615 246.371 178.978C245.499 178.201 244.484 177.601 243.384 177.211C242.951 177.04 242.486 176.963 242.02 176.986C241.79 177 241.567 177.07 241.37 177.188C241.173 177.307 241.008 177.472 240.888 177.668C240.784 177.99 240.758 178.331 240.813 178.664C240.867 178.998 241.001 179.313 241.202 179.584C241.778 180.629 242.435 181.628 243.166 182.571C243.703 183.371 244.448 184.01 245.32 184.419C246.221 184.767 247.148 184.726 247.625 184.105" fill="#FFD400"/>
<path d="M249.132 195.684C249.168 195.56 249.187 195.431 249.187 195.302L249.289 194.259C249.342 193.746 249.421 193.236 249.528 192.731C249.661 192.115 249.846 191.51 250.08 190.924C250.309 190.341 250.619 189.792 251.001 189.295C251.315 188.892 251.713 188.561 252.167 188.326C252.476 188.174 252.807 188.07 253.149 188.019C253.277 188.015 253.405 187.997 253.53 187.965C253.401 187.949 253.271 187.949 253.142 187.965C252.788 187.992 252.441 188.082 252.119 188.231C251.641 188.458 251.221 188.791 250.892 189.206C250.49 189.711 250.168 190.274 249.937 190.877C249.698 191.47 249.513 192.084 249.385 192.711C249.285 193.222 249.217 193.739 249.18 194.259C249.146 194.702 249.132 195.057 249.125 195.309C249.116 195.434 249.118 195.559 249.132 195.684Z" fill="#263238"/>
<path d="M249.207 194.886C249.215 194.827 249.215 194.768 249.207 194.709V194.204C249.207 193.768 249.207 193.127 249.207 192.343C249.241 190.774 249.378 189.076 249.637 186.697C249.889 184.453 250.223 181.842 250.571 180.144C250.646 179.755 250.721 179.407 250.796 179.107C250.871 178.807 250.919 178.534 250.974 178.323C251.028 178.112 251.062 177.962 251.096 177.832C251.103 177.773 251.103 177.714 251.096 177.655C251.069 177.709 251.049 177.766 251.035 177.825C250.994 177.948 250.946 178.112 250.892 178.309C250.837 178.507 250.755 178.78 250.68 179.087C250.605 179.394 250.517 179.735 250.435 180.116C249.999 182.125 249.674 184.155 249.46 186.199C249.194 188.586 249.078 190.768 249.064 192.336C249.064 193.12 249.064 193.761 249.064 194.198C249.064 194.409 249.064 194.573 249.064 194.709C249.1 194.776 249.149 194.837 249.207 194.886Z" fill="#263238"/>
<path d="M249.221 190.686C249.231 190.509 249.231 190.331 249.221 190.154C249.221 189.813 249.153 189.322 249.057 188.722C248.939 188.016 248.785 187.318 248.594 186.628C248.365 185.785 248.073 184.96 247.721 184.16C247.115 182.682 246.244 181.328 245.15 180.164C244.962 179.963 244.762 179.774 244.55 179.598C244.454 179.523 244.373 179.441 244.291 179.38L244.052 179.223C243.915 179.112 243.767 179.016 243.609 178.937C244.124 179.338 244.611 179.773 245.068 180.239C246.126 181.412 246.973 182.759 247.571 184.221C247.918 185.017 248.212 185.835 248.45 186.669C248.651 187.342 248.817 188.025 248.948 188.715C249.057 189.308 249.119 189.799 249.16 190.133C249.163 190.319 249.184 190.504 249.221 190.686Z" fill="#263238"/>
<path d="M294.635 105.871H291.887V110.12H294.635V105.871Z" fill="#263238"/>
<path d="M294.635 111.286H291.887V115.534H294.635V111.286Z" fill="#263238"/>
<path d="M341.7 172.861C341.734 171.784 342.682 170.965 343.63 170.454C344.578 169.942 345.675 169.547 346.316 168.701C347.394 167.338 347.148 165.06 348.587 164.071C349.433 163.492 350.633 163.56 351.417 162.905C351.803 162.527 352.115 162.081 352.337 161.589C353.683 159.174 355.652 157.163 358.038 155.766C357.482 158.11 356.304 160.261 354.629 161.992C353.899 162.623 353.277 163.369 352.788 164.201C352.106 165.612 352.508 167.379 351.724 168.729C350.817 170.27 348.628 170.836 348.042 172.52C347.544 173.945 348.43 175.589 347.919 177.007C347.66 177.598 347.268 178.12 346.773 178.534C345.109 180.069 343.091 180.866 340.636 180.103L337.554 179.319L341.7 172.861Z" fill="#FFD400"/>
<g opacity="0.3">
<path opacity="0.3" d="M341.7 172.861C341.734 171.784 342.682 170.965 343.63 170.454C344.578 169.942 345.675 169.547 346.316 168.701C347.394 167.338 347.148 165.06 348.587 164.071C349.433 163.492 350.633 163.56 351.417 162.905C351.803 162.527 352.115 162.081 352.337 161.589C353.683 159.174 355.652 157.163 358.038 155.766C357.482 158.11 356.304 160.261 354.629 161.992C353.899 162.623 353.277 163.369 352.788 164.201C352.106 165.612 352.508 167.379 351.724 168.729C350.817 170.27 348.628 170.836 348.042 172.52C347.544 173.945 348.43 175.589 347.919 177.007C347.66 177.598 347.268 178.12 346.773 178.534C345.109 180.069 343.091 180.866 340.636 180.103L337.554 179.319L341.7 172.861Z" fill="black"/>
</g>
<path d="M336.913 179.203C336.621 179.173 336.336 179.09 336.074 178.957C335.292 178.615 334.613 178.074 334.104 177.389C333.928 177.144 333.82 176.857 333.79 176.557C333.782 176.23 333.821 175.904 333.906 175.589C334.144 174.933 334.187 174.222 334.029 173.543C333.719 172.763 333.535 171.939 333.483 171.102C333.593 170.163 333.885 169.255 334.342 168.429C334.837 167.558 335.098 166.573 335.099 165.571C335.052 164.535 334.629 163.478 334.608 162.285C334.588 161.091 335.092 159.953 335.352 158.787C335.499 158.205 335.531 157.601 335.447 157.007C335.358 156.4 335.161 155.793 335.058 155.138C334.94 153.801 335.042 152.454 335.358 151.149C335.474 150.467 335.59 149.786 335.706 149.138C335.855 148.466 335.932 147.78 335.938 147.092C335.916 146.391 335.855 145.692 335.754 144.999C335.705 144.633 335.685 144.263 335.692 143.894C335.742 143.527 335.81 143.163 335.897 142.803C336.303 141.381 336.84 140 337.5 138.677L337.554 138.562L337.656 138.316L337.847 138.493C338.921 139.589 339.54 141.051 339.579 142.585C339.638 144.018 339.565 145.454 339.361 146.874C339.176 148.215 339.236 149.578 339.538 150.897C339.873 152.152 340.595 153.386 340.418 154.777C340.241 156.168 339.17 157.082 338.993 158.241C338.816 159.4 339.252 160.532 339.586 161.61C340.012 162.662 340.128 163.814 339.92 164.93C339.688 165.994 339.238 166.928 339.061 167.863C338.881 168.763 338.881 169.69 339.061 170.59C339.204 171.443 339.416 172.24 339.566 173.004C339.739 173.711 339.794 174.441 339.729 175.166C339.65 175.773 339.482 176.366 339.232 176.925C338.91 177.712 338.376 178.394 337.69 178.896C337.452 179.07 337.181 179.193 336.893 179.257C337.155 179.135 337.408 178.994 337.65 178.834C338.298 178.321 338.797 177.643 339.095 176.871C339.332 176.309 339.486 175.717 339.552 175.111C339.609 174.405 339.545 173.695 339.361 173.011C339.204 172.261 338.986 171.463 338.829 170.597C338.631 169.675 338.617 168.722 338.788 167.794C338.979 166.819 339.409 165.878 339.62 164.862C339.807 163.794 339.687 162.694 339.272 161.691C339.095 161.153 338.897 160.6 338.754 160.014C338.586 159.413 338.552 158.782 338.652 158.166C338.87 156.877 339.907 155.936 340.063 154.722C340.22 153.509 339.538 152.288 339.17 150.979C338.857 149.617 338.792 148.211 338.979 146.826C339.179 145.426 339.25 144.011 339.191 142.598C339.152 141.163 338.575 139.796 337.575 138.766L337.875 138.698L337.827 138.821C337.169 140.131 336.637 141.501 336.238 142.912C336.154 143.252 336.088 143.595 336.04 143.942C336.031 144.288 336.051 144.635 336.102 144.978C336.205 145.685 336.264 146.398 336.279 147.113C336.276 147.819 336.196 148.523 336.04 149.213C335.924 149.895 335.808 150.577 335.692 151.224C335.379 152.49 335.273 153.798 335.379 155.098C335.474 155.718 335.665 156.332 335.754 156.966C335.844 157.603 335.809 158.251 335.652 158.875C335.365 160.082 334.881 161.18 334.895 162.285C334.908 163.389 335.317 164.46 335.365 165.558C335.359 166.604 335.082 167.631 334.561 168.538C334.112 169.334 333.82 170.209 333.701 171.115C333.744 171.929 333.917 172.73 334.213 173.488C334.312 173.864 334.337 174.255 334.288 174.641C334.232 174.986 334.155 175.328 334.056 175.664C333.972 175.959 333.929 176.264 333.926 176.57C333.957 176.846 334.053 177.11 334.206 177.341C334.691 178.013 335.335 178.554 336.081 178.916C336.35 179.034 336.628 179.13 336.913 179.203Z" fill="#263238"/>
<path d="M337.765 140.45C337.799 140.45 337.765 140.996 337.765 141.971C337.765 142.217 337.765 142.482 337.813 142.776C337.861 143.069 337.895 143.396 337.929 143.751C338.005 144.542 338.039 145.336 338.031 146.131C338.031 147.01 337.977 147.979 337.915 149.008C337.802 150.09 337.841 151.183 338.031 152.254C338.134 152.82 338.27 153.406 338.338 154.027C338.392 154.662 338.366 155.301 338.263 155.929C338.222 156.243 338.174 156.557 338.127 156.877C338.079 157.198 338.065 157.518 338.038 157.839C337.977 158.487 337.915 159.141 337.854 159.809C337.588 165.162 337.411 170.038 337.261 173.536C337.179 175.248 337.111 176.659 337.063 177.696C337.029 178.153 337.008 178.521 336.988 178.821C336.988 178.954 336.97 179.088 336.933 179.216C336.916 179.085 336.916 178.952 336.933 178.821V177.689C336.933 176.652 336.981 175.241 337.015 173.522C337.097 170.011 337.233 165.149 337.506 159.782C337.565 159.114 337.627 158.452 337.69 157.798C337.69 157.471 337.752 157.116 337.779 156.823L337.922 155.875C338.027 155.279 338.054 154.671 338.004 154.068C337.943 153.475 337.813 152.895 337.711 152.322C337.525 151.22 337.498 150.097 337.629 148.988C337.704 147.958 337.772 147.003 337.793 146.124C337.813 145.244 337.793 144.46 337.738 143.764C337.738 143.417 337.684 143.083 337.656 142.796C337.629 142.51 337.656 142.217 337.656 141.971C337.669 141.592 337.703 141.214 337.759 140.839C337.74 140.71 337.742 140.579 337.765 140.45Z" fill="#263238"/>
<path d="M336.374 179.066C334.724 177.3 335.201 173.536 336.668 171.62C338.134 169.704 340.159 168.142 341.059 165.899C341.741 164.174 341.7 162.182 342.62 160.573C343.862 158.391 346.678 157.246 347.353 154.832C347.728 153.468 347.353 151.981 347.789 150.652C348.342 149.022 349.999 148.081 351.199 146.853C353.054 144.971 353.926 142.36 355.045 139.98C356.163 137.6 357.922 135.207 360.5 134.613C360.207 136.836 360.336 138.452 359.327 141.275C358.959 142.292 357.186 143.914 356.361 146.131C355.87 147.46 355.406 148.797 354.929 150.126C354.523 151.442 353.923 152.69 353.149 153.829C352.515 154.668 351.683 155.357 351.103 156.257C350.06 157.941 350.142 160.123 349.194 161.862C348.389 163.335 346.903 164.371 346.214 165.906C345.246 168.06 346.016 170.815 344.653 172.725C343.971 173.679 342.852 174.279 342.28 175.302C341.843 176.093 341.789 177.055 341.366 177.859C340.684 179.155 337.745 179.462 336.367 178.964" fill="#FFEF42"/>
<path d="M359.327 136.564C359.282 136.721 359.223 136.874 359.15 137.02C359.02 137.321 358.843 137.757 358.57 138.309C358.297 138.862 357.8 139.448 357.336 140.171C356.789 140.983 356.283 141.823 355.822 142.687C355.297 143.649 354.779 144.733 354.226 145.885C353.684 147.157 352.966 148.346 352.092 149.417C351.622 149.977 351.124 150.522 350.694 151.129C350.265 151.765 349.917 152.452 349.658 153.175L349.228 154.279L348.73 155.391L347.707 157.648C346.207 160.628 344.741 163.451 343.398 166.022L339.791 172.8L337.336 177.362L336.654 178.589C336.578 178.734 336.491 178.873 336.395 179.005C336.442 178.848 336.506 178.698 336.586 178.555C336.749 178.234 336.954 177.812 337.213 177.293C337.786 176.161 338.577 174.566 339.566 172.677C340.554 170.788 341.775 168.415 343.105 165.858C344.434 163.301 345.832 160.457 347.38 157.484L348.396 155.241L348.894 154.15L349.324 153.038C349.599 152.3 349.966 151.599 350.415 150.952C350.865 150.324 351.369 149.772 351.833 149.226C352.696 148.18 353.41 147.019 353.954 145.776C354.52 144.624 355.051 143.546 355.597 142.592C356.075 141.728 356.598 140.89 357.165 140.082C357.656 139.359 358.161 138.8 358.454 138.268C358.747 137.736 358.925 137.334 359.088 137.02C359.151 136.86 359.231 136.706 359.327 136.564Z" fill="#263238"/>
<path d="M346.705 205.272C351.713 206.655 357.044 206.272 361.802 204.187C362.925 203.684 364.097 203.3 365.3 203.042C371.342 201.848 377.336 205.401 383.5 205.462C387.196 205.497 390.769 204.283 394.411 203.649C391.144 201.351 387.121 198.548 387.121 198.548L386.071 196.011L377.009 193.284L366.269 186.294L359.525 185.34L352.147 181.412L329.753 177.552H286.439L274.315 185.135L248.178 186.608L236.981 195.439L220.513 199.83L213.251 205.326C215.087 205.499 216.931 205.556 218.774 205.497C228.123 205.135 237.124 200.962 246.473 201.405C256.558 201.869 266.173 207.679 276.176 206.315C284.141 205.231 291.342 199.666 299.361 200.307C306.821 200.901 313.197 206.819 320.677 206.833C325.089 206.833 329.194 204.787 333.442 203.594C338.359 202.196 341.652 203.833 346.705 205.272Z" fill="#263238"/>
<path d="M425.103 182.046C425.103 182.128 419.273 182.196 412.079 182.196C404.885 182.196 399.054 182.128 399.054 182.046C399.054 181.964 404.885 181.896 412.079 181.896C419.273 181.896 425.103 181.964 425.103 182.046Z" fill="#16C7DF" fill-opacity="0.79"/>
<path d="M421.073 185.012C421.073 185.101 417.336 185.169 412.726 185.169C408.117 185.169 404.38 185.101 404.38 185.012C404.38 184.924 408.117 184.862 412.726 184.862C417.336 184.862 421.073 184.93 421.073 185.012Z" fill="#16C7DF" fill-opacity="0.79"/>
<path d="M414.274 188.21C413.427 188.41 412.544 188.41 411.697 188.21C412.544 188.01 413.427 188.01 414.274 188.21Z" fill="#16C7DF"/>
<path d="M418.918 172.834V165.156H412.706V160.989H410.96V165.36H410.047V161.03H408.512V165.121H399.02V166.376H400.336C400.289 167.058 400.255 168.422 400.255 169.97C400.255 171.054 400.255 172.015 400.295 172.765L393.64 172.8L399.504 179.291H423.664L428.274 172.8L418.918 172.834ZM400.507 166.41H403.494C403.446 167.092 403.412 168.456 403.412 170.004C403.412 171.081 403.412 172.049 403.453 172.779H400.548C400.548 172.043 400.589 171.068 400.589 169.983C400.575 168.449 400.541 167.099 400.493 166.41H400.507ZM407.326 172.765H403.678C403.678 172.036 403.719 171.068 403.719 169.99C403.719 168.435 403.684 167.085 403.63 166.397H407.326V172.765Z" fill="#078EA6"/>
</svg>
